<svg width="234" height="234" viewBox="0 0 234 234" fill="none" xmlns="http://www.w3.org/2000/svg">
<path opacity="0.75" d="M175.237 101.48C166.762 69.2194 133.739 49.9377 101.478 58.4132C69.2179 66.8886 49.9363 99.9117 58.4117 132.172C66.8872 164.433 99.9102 183.714 132.171 175.239C164.431 166.763 183.713 133.74 175.237 101.48Z" fill="white"/>
<path d="M56.433 116.824C56.433 120.781 109.173 123.316 116.825 123.316C124.478 123.316 177.217 121.184 177.217 116.825C177.217 83.4655 150.184 56.4323 116.825 56.4323C83.4662 56.4323 56.433 83.4654 56.433 116.824Z" fill="#3DB987"/>
<path opacity="0.75" d="M91.0959 112.087C91.0959 99.0082 85.0662 88.3821 77.6149 88.3939C70.1636 88.4058 64.1338 99.0082 64.1338 112.087C64.1338 125.165 70.1636 135.791 77.6149 135.779C85.0544 135.779 91.0959 125.165 91.0959 112.087Z" fill="white"/>
</svg>
