<svg width="234" height="234" viewBox="0 0 234 234" fill="none" xmlns="http://www.w3.org/2000/svg">
<path opacity="0.75" d="M175.238 101.48C166.763 69.219 133.74 49.9373 101.479 58.4127C69.2189 66.8881 49.9373 99.9112 58.4127 132.172C66.8881 164.432 99.9111 183.714 132.172 175.238C164.432 166.763 183.714 133.74 175.238 101.48Z" fill="white"/>
<path d="M56.434 116.824C56.434 120.781 109.174 123.316 116.826 123.316C124.479 123.316 177.218 121.183 177.218 116.824C177.218 83.465 150.185 56.4318 116.826 56.4318C83.4671 56.4318 56.434 83.465 56.434 116.824Z" fill="#D32F2F"/>
<path opacity="0.75" d="M91.0959 112.086C91.0959 99.0078 85.0662 88.3816 77.6149 88.3935C70.1636 88.4053 64.1338 99.0078 64.1338 112.086C64.1338 125.164 70.1636 135.79 77.6149 135.778C85.0543 135.778 91.0959 125.164 91.0959 112.086Z" fill="white"/>
</svg>
