<svg width="234" height="234" viewBox="0 0 234 234" fill="none" xmlns="http://www.w3.org/2000/svg">
<path opacity="0.75" d="M175.237 101.479C166.762 69.2185 133.739 49.9368 101.478 58.4122C69.2179 66.8876 49.9363 99.9107 58.4117 132.171C66.8872 164.432 99.9102 183.713 132.171 175.238C164.431 166.762 183.713 133.739 175.237 101.479Z" fill="white"/>
<path d="M56.433 116.823C56.433 120.78 109.173 123.315 116.825 123.315C124.478 123.315 177.217 121.183 177.217 116.824C177.217 83.4645 150.184 56.4313 116.825 56.4313C83.4662 56.4313 56.433 83.4644 56.433 116.823Z" fill="#ED9D0F"/>
<path opacity="0.75" d="M91.0959 112.086C91.0959 99.0073 85.0662 88.3811 77.6149 88.393C70.1636 88.4048 64.1338 99.0073 64.1338 112.086C64.1338 125.164 70.1636 135.79 77.6149 135.778C85.0544 135.778 91.0959 125.164 91.0959 112.086Z" fill="white"/>
</svg>
