<svg width="234" height="234" viewBox="0 0 234 234" fill="none" xmlns="http://www.w3.org/2000/svg">
<path opacity="0.75" d="M175.238 101.479C166.763 69.2185 133.74 49.9368 101.479 58.4122C69.2189 66.8876 49.9373 99.9107 58.4127 132.171C66.8881 164.432 99.9111 183.713 132.172 175.238C164.432 166.762 183.714 133.739 175.238 101.479Z" fill="white"/>
<path d="M56.434 116.823C56.434 120.78 109.174 123.315 116.826 123.315C124.479 123.315 177.218 121.183 177.218 116.824C177.218 83.4645 150.185 56.4313 116.826 56.4313C83.4671 56.4313 56.434 83.4644 56.434 116.823Z" fill="#14A9E3"/>
<path opacity="0.75" d="M91.0959 112.086C91.0959 99.0073 85.0662 88.3811 77.6149 88.393C70.1636 88.4048 64.1338 99.0073 64.1338 112.086C64.1338 125.164 70.1636 135.79 77.6149 135.778C85.0544 135.778 91.0959 125.164 91.0959 112.086Z" fill="white"/>
</svg>
