<svg width="234" height="234" viewBox="0 0 234 234" fill="none" xmlns="http://www.w3.org/2000/svg">
<path opacity="0.75" d="M175.237 101.48C166.762 69.219 133.739 49.9373 101.478 58.4127C69.2179 66.8881 49.9363 99.9112 58.4117 132.172C66.8872 164.432 99.9102 183.714 132.171 175.238C164.431 166.763 183.713 133.74 175.237 101.48Z" fill="white"/>
<path d="M56.433 116.824C56.433 120.781 109.173 123.316 116.825 123.316C124.478 123.316 177.217 121.183 177.217 116.824C177.217 83.465 150.184 56.4318 116.825 56.4318C83.4661 56.4318 56.433 83.465 56.433 116.824Z" fill="#EB559C"/>
<path opacity="0.75" d="M91.0959 112.086C91.0959 99.0078 85.0662 88.3816 77.6149 88.3935C70.1636 88.4053 64.1338 99.0078 64.1338 112.086C64.1338 125.164 70.1636 135.79 77.6149 135.778C85.0543 135.778 91.0959 125.164 91.0959 112.086Z" fill="white"/>
</svg>
