<svg width="996" height="335" viewBox="0 0 996 335" fill="none" xmlns="http://www.w3.org/2000/svg">
<path opacity="0.75" d="M210.222 144.682C213.737 111.512 189.697 81.7738 156.527 78.259C123.357 74.7443 93.6189 98.7844 90.1042 131.954C86.5895 165.124 110.63 194.862 143.799 198.377C176.969 201.891 206.707 177.851 210.222 144.682Z" fill="white"/>
<path d="M93.6969 116.902C92.2939 120.602 140.707 141.673 147.863 144.387C155.018 147.101 205.087 163.808 206.633 159.732C218.462 128.54 202.771 93.678 171.58 81.8491C140.388 70.0201 105.526 85.7109 93.6969 116.902Z" fill="#3DB987"/>
<path opacity="0.75" d="M127.786 124.763C132.423 112.534 130.554 100.461 123.582 97.8296C116.611 95.1984 107.213 102.974 102.576 115.202C97.9384 127.431 99.8085 139.504 106.78 142.135C113.736 144.773 123.148 136.991 127.786 124.763Z" fill="white"/>
<path opacity="0.75" d="M296.295 101.48C287.82 69.2195 254.797 49.9378 222.536 58.4132C190.276 66.8887 170.994 99.9117 179.469 132.172C187.945 164.433 220.968 183.714 253.228 175.239C285.489 166.763 304.77 133.741 296.295 101.48Z" fill="white"/>
<path d="M177.491 116.825C177.491 120.781 230.23 123.316 237.883 123.316C245.536 123.316 298.275 121.184 298.275 116.825C298.275 83.4655 271.242 56.4324 237.883 56.4324C204.524 56.4324 177.491 83.4655 177.491 116.825Z" fill="#ED9D0F"/>
<path opacity="0.75" d="M212.153 112.087C212.153 99.0083 206.123 88.3822 198.672 88.394C191.22 88.4059 185.19 99.0083 185.19 112.087C185.19 125.165 191.22 135.791 198.672 135.779C206.111 135.779 212.153 125.165 212.153 112.087Z" fill="white"/>
<path opacity="0.75" d="M279.86 174.74C260.974 147.246 223.376 140.268 195.883 159.154C168.389 178.04 161.411 215.638 180.297 243.132C199.183 270.625 236.781 277.603 264.275 258.717C291.768 239.831 298.746 202.233 279.86 174.74Z" fill="white"/>
<path d="M173.245 229.357C174.583 233.081 225.072 217.631 232.274 215.043C239.476 212.455 288.387 192.613 286.913 188.51C275.631 157.117 241.049 140.819 209.655 152.1C178.262 163.381 161.963 197.964 173.245 229.357Z" fill="#EB559C"/>
<path opacity="0.75" d="M204.263 213.176C199.84 200.869 190.572 192.908 183.564 195.439C176.555 197.97 174.466 209.987 178.889 222.295C183.312 234.602 192.58 242.563 199.588 240.032C206.589 237.516 208.686 225.484 204.263 213.176Z" fill="white"/>
<path opacity="0.75" d="M301.592 151.021C320.478 178.515 358.076 185.492 385.569 166.607C413.063 147.721 420.041 110.123 401.155 82.629C382.269 55.1355 344.671 48.1577 317.177 67.0437C289.684 85.9296 282.706 123.527 301.592 151.021Z" fill="white"/>
<path d="M408.207 96.4035C406.869 92.6799 356.38 108.13 349.178 110.718C341.976 113.306 293.065 133.148 294.539 137.25C305.821 168.644 340.403 184.942 371.797 173.661C403.19 162.379 419.489 127.797 408.207 96.4035Z" fill="#EB559C"/>
<path opacity="0.75" d="M377.189 112.584C381.612 124.892 390.88 132.853 397.888 130.322C404.897 127.791 406.986 115.774 402.563 103.466C398.14 91.1585 388.872 83.1977 381.864 85.7288C374.863 88.2446 372.767 100.277 377.189 112.584Z" fill="white"/>
<path opacity="0.75" d="M590.224 160.767C609.11 188.261 646.708 195.239 674.201 176.353C701.695 157.467 708.673 119.869 689.787 92.3751C670.901 64.8816 633.303 57.9038 605.809 76.7897C578.316 95.6757 571.338 133.274 590.224 160.767Z" fill="white"/>
<path d="M696.839 106.15C695.501 102.426 645.012 117.876 637.81 120.464C630.608 123.052 581.697 142.894 583.171 146.996C594.453 178.39 629.035 194.688 660.429 183.407C691.822 172.126 708.121 137.543 696.839 106.15Z" fill="#EB559C"/>
<path opacity="0.75" d="M665.821 122.33C670.244 134.638 679.512 142.599 686.52 140.068C693.529 137.537 695.618 125.52 691.195 113.212C686.772 100.905 677.504 92.9438 670.496 95.4749C663.495 97.9907 661.398 110.023 665.821 122.33Z" fill="white"/>
<path opacity="0.75" d="M280.632 213.671C313.656 218.354 344.225 195.379 348.908 162.354C353.592 129.33 330.616 98.761 297.592 94.0776C264.567 89.3942 233.998 112.37 229.315 145.394C224.632 178.419 247.607 208.988 280.632 213.671Z" fill="white"/>
<path d="M312.508 98.1983C308.86 96.6656 286.092 144.305 283.128 151.36C280.164 158.416 261.699 207.863 265.718 209.552C296.473 222.475 331.867 208.024 344.79 177.27C357.712 146.515 343.262 111.121 312.508 98.1983Z" fill="#D32F2F"/>
<path opacity="0.75" d="M303.448 131.99C315.505 137.056 327.637 135.613 330.513 128.739C333.389 121.865 325.95 112.199 313.893 107.133C301.836 102.067 289.703 103.509 286.828 110.383C283.946 117.242 291.391 126.923 303.448 131.99Z" fill="white"/>
<path opacity="0.75" d="M453.571 70.0906C420.546 65.4072 389.977 88.3825 385.294 121.407C380.61 154.432 403.586 185.001 436.611 189.684C469.635 194.367 500.204 171.392 504.887 138.367C509.571 105.342 486.595 74.774 453.571 70.0906Z" fill="white"/>
<path d="M421.696 185.562C425.343 187.095 448.111 139.456 451.075 132.4C454.04 125.345 472.504 75.8975 468.485 74.2088C437.731 61.2862 402.336 75.7366 389.413 106.491C376.491 137.245 390.941 172.64 421.696 185.562Z" fill="#D32F2F"/>
<path opacity="0.75" d="M430.754 151.771C418.697 146.705 406.565 148.147 403.689 155.021C400.814 161.896 408.252 171.562 420.31 176.628C432.367 181.694 444.499 180.251 447.374 173.377C450.256 166.519 442.811 156.837 430.754 151.771Z" fill="white"/>
<path opacity="0.75" d="M116.184 83.6658C83.159 78.9824 52.5904 101.958 47.907 134.983C43.2237 168.007 66.199 198.576 99.2239 203.259C132.249 207.943 162.817 184.967 167.5 151.942C172.184 118.918 149.209 88.3492 116.184 83.6658Z" fill="white"/>
<path d="M84.3089 199.138C87.9566 200.67 110.724 153.031 113.688 145.976C116.653 138.92 135.117 89.4727 131.098 87.784C100.344 74.8614 64.9493 89.3118 52.0267 120.066C39.1041 150.821 53.5545 186.215 84.3089 199.138Z" fill="#D32F2F"/>
<path opacity="0.75" d="M93.3673 165.346C81.3102 160.28 69.1779 161.723 66.3024 168.597C63.4268 175.471 70.8657 185.137 82.9228 190.203C94.9799 195.269 107.112 193.827 109.988 186.953C112.87 180.094 105.424 170.412 93.3673 165.346Z" fill="white"/>
<path opacity="0.75" d="M818.567 58.5017C785.542 53.8184 754.973 76.7936 750.29 109.818C745.606 142.843 768.582 173.412 801.607 178.095C834.632 182.779 865.2 159.803 869.883 126.778C874.567 93.7536 851.591 63.1851 818.567 58.5017Z" fill="white"/>
<path d="M786.692 173.974C790.339 175.506 813.107 127.867 816.071 120.811C819.036 113.756 837.5 64.3087 833.481 62.6199C802.727 49.6973 767.332 64.1477 754.41 94.9021C741.487 125.657 755.937 161.051 786.692 173.974Z" fill="#D32F2F"/>
<path opacity="0.75" d="M795.75 140.182C783.693 135.116 771.561 136.558 768.685 143.433C765.81 150.307 773.248 159.973 785.306 165.039C797.363 170.105 809.495 168.663 812.37 161.789C815.252 154.93 807.807 145.248 795.75 140.182Z" fill="white"/>
<path opacity="0.75" d="M180.499 200.261C172.024 168.001 139.001 148.719 106.74 157.194C74.4796 165.67 55.198 198.693 63.6734 230.954C72.1489 263.214 105.172 282.496 137.432 274.02C169.693 265.545 188.975 232.522 180.499 200.261Z" fill="white"/>
<path d="M61.6947 215.606C61.6947 219.562 114.434 222.098 122.087 222.098C129.74 222.098 182.479 219.965 182.479 215.606C182.479 182.247 155.446 155.214 122.087 155.214C88.7279 155.214 61.6947 182.247 61.6947 215.606Z" fill="#ED9D0F"/>
<path opacity="0.75" d="M96.3566 210.868C96.3566 197.79 90.3269 187.163 82.8756 187.175C75.4243 187.187 69.3945 197.79 69.3945 210.868C69.3945 223.946 75.4243 234.572 82.8756 234.56C90.3151 234.56 96.3566 223.946 96.3566 210.868Z" fill="white"/>
<path opacity="0.75" d="M346.87 214.475C355.345 246.736 388.368 266.017 420.629 257.542C452.889 249.066 472.171 216.043 463.696 183.783C455.22 151.522 422.197 132.241 389.937 140.716C357.676 149.192 338.395 182.215 346.87 214.475Z" fill="white"/>
<path d="M465.674 199.131C465.674 195.174 412.935 192.639 405.282 192.639C397.63 192.639 344.89 194.771 344.89 199.13C344.89 232.49 371.923 259.523 405.282 259.523C438.641 259.523 465.674 232.49 465.674 199.131Z" fill="#ED9D0F"/>
<path opacity="0.75" d="M431.013 203.868C431.013 216.947 437.042 227.573 444.494 227.561C451.945 227.549 457.975 216.947 457.975 203.868C457.975 190.79 451.945 180.164 444.494 180.176C437.054 180.176 431.013 190.79 431.013 203.868Z" fill="white"/>
<path opacity="0.75" d="M361.624 262.986C388.503 243.235 394.281 205.434 374.53 178.556C354.778 151.677 316.977 145.899 290.099 165.65C263.22 185.402 257.442 223.203 277.193 250.081C296.945 276.96 334.746 282.738 361.624 262.986Z" fill="white"/>
<path d="M303.642 158.164C299.963 159.619 317.012 209.592 319.828 216.707C322.643 223.823 344.032 272.078 348.086 270.474C379.104 258.199 394.294 223.116 382.019 192.097C369.744 161.078 334.661 145.889 303.642 158.164Z" fill="#14A9E3"/>
<path opacity="0.75" d="M320.801 188.65C332.962 183.838 340.624 174.322 337.871 167.397C335.119 160.473 323.041 158.768 310.881 163.58C298.72 168.392 291.058 177.909 293.811 184.833C296.548 191.75 308.641 193.463 320.801 188.65Z" fill="white"/>
<path opacity="0.75" d="M463.457 159.828C436.578 179.579 430.8 217.38 450.551 244.259C470.303 271.138 508.104 276.915 534.982 257.164C561.861 237.413 567.639 199.612 547.888 172.733C528.136 145.855 490.335 140.077 463.457 159.828Z" fill="white"/>
<path d="M521.439 264.651C525.118 263.195 508.069 213.223 505.253 206.107C502.438 198.991 481.049 150.736 476.996 152.34C445.977 164.615 430.787 199.699 443.062 230.717C455.337 261.736 490.42 276.926 521.439 264.651Z" fill="#14A9E3"/>
<path opacity="0.75" d="M504.28 234.165C492.119 238.977 484.457 248.494 487.21 255.418C489.962 262.342 502.04 264.048 514.201 259.236C526.361 254.423 534.023 244.907 531.27 237.982C528.533 231.065 516.44 229.353 504.28 234.165Z" fill="white"/>
<path opacity="0.75" d="M581.679 146.295C585.194 113.126 561.154 83.387 527.984 79.8723C494.814 76.3576 465.076 100.398 461.561 133.567C458.046 166.737 482.087 196.475 515.256 199.99C548.426 203.505 578.164 179.465 581.679 146.295Z" fill="white"/>
<path d="M465.154 118.516C463.751 122.215 512.164 143.287 519.32 146C526.475 148.714 576.544 165.421 578.09 161.345C589.919 130.154 574.228 95.2913 543.037 83.4624C511.845 71.6334 476.983 87.3241 465.154 118.516Z" fill="#3DB987"/>
<path opacity="0.75" d="M499.243 126.376C503.88 114.148 502.011 102.074 495.039 99.4428C488.068 96.8117 478.67 104.587 474.033 116.816C469.395 129.044 471.265 141.118 478.237 143.749C485.193 146.387 494.606 138.605 499.243 126.376Z" fill="white"/>
<path opacity="0.75" d="M152.285 183.151C148.77 216.321 172.81 246.059 205.98 249.574C239.149 253.089 268.888 229.049 272.403 195.879C275.917 162.709 251.877 132.971 218.708 129.456C185.538 125.942 155.8 149.982 152.285 183.151Z" fill="white"/>
<path d="M268.811 210.93C270.214 207.23 221.8 186.159 214.645 183.445C207.49 180.731 157.421 164.024 155.875 168.1C144.046 199.292 159.737 234.154 190.928 245.983C222.12 257.812 256.982 242.121 268.811 210.93Z" fill="#3DB987"/>
<path opacity="0.75" d="M234.721 203.069C230.083 215.298 231.953 227.371 238.925 230.002C245.896 232.634 255.293 224.858 259.931 212.63C264.568 200.401 262.698 188.328 255.727 185.697C248.771 183.059 239.358 190.841 234.721 203.069Z" fill="white"/>
<path opacity="0.75" d="M651.317 176.353C632.431 148.859 594.833 141.882 567.34 160.767C539.846 179.653 532.868 217.251 551.754 244.745C570.64 272.239 608.238 279.216 635.732 260.33C663.225 241.444 670.203 203.847 651.317 176.353Z" fill="white"/>
<path d="M544.702 230.971C546.04 234.694 596.529 219.244 603.731 216.656C610.933 214.068 659.844 194.226 658.37 190.124C647.088 158.73 612.506 142.432 581.112 153.713C549.719 164.995 533.42 199.577 544.702 230.971Z" fill="#EB559C"/>
<path opacity="0.75" d="M575.72 214.79C571.297 202.482 562.029 194.521 555.021 197.052C548.012 199.583 545.923 211.6 550.346 223.908C554.769 236.215 564.037 244.176 571.045 241.645C578.047 239.129 580.143 227.097 575.72 214.79Z" fill="white"/>
<path opacity="0.75" d="M736.464 180.345C755.35 207.839 792.948 214.817 820.442 195.931C847.935 177.045 854.913 139.447 836.027 111.953C817.141 84.4597 779.543 77.482 752.05 96.3679C724.556 115.254 717.578 152.852 736.464 180.345Z" fill="white"/>
<path d="M843.079 125.728C841.741 122.004 791.252 137.454 784.05 140.042C776.848 142.63 727.937 162.472 729.411 166.575C740.693 197.968 775.275 214.266 806.669 202.985C838.063 191.704 854.361 157.121 843.079 125.728Z" fill="#EB559C"/>
<path opacity="0.75" d="M812.061 141.908C816.484 154.216 825.752 162.177 832.761 159.646C839.769 157.115 841.858 145.098 837.435 132.79C833.012 120.483 823.744 112.522 816.736 115.053C809.735 117.569 807.639 129.601 812.061 141.908Z" fill="white"/>
<path opacity="0.75" d="M668.536 197.147C701.561 201.83 732.129 178.855 736.813 145.83C741.496 112.805 718.521 82.2365 685.496 77.5532C652.471 72.8698 621.903 95.8452 617.219 128.87C612.536 161.895 635.511 192.463 668.536 197.147Z" fill="white"/>
<path d="M700.412 81.6739C696.764 80.1412 673.997 127.781 671.032 134.836C668.068 141.891 649.603 191.339 653.623 193.028C684.377 205.95 719.771 191.5 732.694 160.745C745.617 129.991 731.166 94.5965 700.412 81.6739Z" fill="#D32F2F"/>
<path opacity="0.75" d="M691.352 115.465C703.41 120.532 715.542 119.089 718.417 112.215C721.293 105.341 713.854 95.6746 701.797 90.6084C689.74 85.5421 677.608 86.9849 674.732 93.859C671.85 100.718 679.295 110.399 691.352 115.465Z" fill="white"/>
<path opacity="0.75" d="M551.956 201.875C543.481 169.614 510.458 150.332 478.197 158.808C445.937 167.283 426.655 200.306 435.13 232.567C443.606 264.827 476.629 284.109 508.889 275.633C541.15 267.158 560.432 234.135 551.956 201.875Z" fill="white"/>
<path d="M433.152 217.219C433.152 221.176 485.891 223.711 493.544 223.711C501.197 223.711 553.936 221.579 553.936 217.219C553.936 183.86 526.903 156.827 493.544 156.827C460.185 156.827 433.152 183.86 433.152 217.219Z" fill="#ED9D0F"/>
<path opacity="0.75" d="M467.814 212.481C467.814 199.403 461.784 188.777 454.333 188.789C446.881 188.8 440.852 199.403 440.852 212.481C440.852 225.559 446.881 236.185 454.333 236.174C461.772 236.174 467.814 225.559 467.814 212.481Z" fill="white"/>
<path opacity="0.75" d="M718.327 216.088C726.802 248.349 759.826 267.631 792.086 259.155C824.347 250.68 843.628 217.657 835.153 185.396C826.677 153.136 793.654 133.854 761.394 142.33C729.133 150.805 709.852 183.828 718.327 216.088Z" fill="white"/>
<path d="M837.131 200.744C837.131 196.787 784.392 194.252 776.739 194.252C769.087 194.252 716.347 196.384 716.347 200.744C716.347 234.103 743.38 261.136 776.739 261.136C810.098 261.136 837.131 234.103 837.131 200.744Z" fill="#ED9D0F"/>
<path opacity="0.75" d="M802.47 205.482C802.47 218.56 808.499 229.186 815.951 229.174C823.402 229.163 829.432 218.56 829.432 205.482C829.432 192.404 823.402 181.777 815.951 181.789C808.511 181.789 802.47 192.404 802.47 205.482Z" fill="white"/>
<path opacity="0.75" d="M851.156 95.3236C826.158 117.407 823.795 155.574 845.878 180.572C867.962 205.57 906.129 207.933 931.127 185.85C956.125 163.766 958.488 125.599 936.404 100.601C914.321 75.6032 876.154 73.2403 851.156 95.3236Z" fill="white"/>
<path d="M918.31 194.521C921.844 192.741 900.38 144.5 896.937 137.665C893.494 130.831 867.862 84.6896 863.969 86.6509C834.177 101.659 822.196 137.964 837.205 167.756C852.213 197.549 888.518 209.529 918.31 194.521Z" fill="#ED9D0F"/>
<path opacity="0.75" d="M898.485 165.697C886.805 171.581 880.028 181.746 883.391 188.396C886.754 195.045 898.935 195.66 910.615 189.776C922.295 183.892 929.072 173.726 925.709 167.077C922.362 160.433 910.165 159.813 898.485 165.697Z" fill="white"/>
<path opacity="0.75" d="M733.081 264.6C759.96 244.849 765.738 207.047 745.987 180.169C726.235 153.29 688.434 147.512 661.556 167.264C634.677 187.015 628.899 224.816 648.651 251.694C668.402 278.573 706.203 284.351 733.081 264.6Z" fill="white"/>
<path d="M675.099 159.777C671.42 161.233 688.469 211.205 691.285 218.321C694.1 225.437 715.489 273.691 719.543 272.087C750.561 259.813 765.751 224.729 753.476 193.71C741.202 162.692 706.118 147.502 675.099 159.777Z" fill="#14A9E3"/>
<path opacity="0.75" d="M692.258 190.264C704.419 185.451 712.081 175.935 709.328 169.011C706.576 162.086 694.498 160.381 682.338 165.193C670.177 170.005 662.515 179.522 665.268 186.446C668.005 193.364 680.098 195.076 692.258 190.264Z" fill="white"/>
<path opacity="0.75" d="M834.914 161.441C808.035 181.192 802.257 218.994 822.008 245.872C841.76 272.751 879.561 278.529 906.439 258.777C933.318 239.026 939.096 201.225 919.345 174.347C899.593 147.468 861.792 141.69 834.914 161.441Z" fill="white"/>
<path d="M892.896 266.264C896.575 264.808 879.526 214.836 876.711 207.72C873.895 200.604 852.506 152.35 848.453 153.954C817.434 166.228 802.244 201.312 814.519 232.331C826.794 263.349 861.877 278.539 892.896 266.264Z" fill="#14A9E3"/>
<path opacity="0.75" d="M875.737 235.778C863.576 240.591 855.914 250.107 858.667 257.031C861.419 263.956 873.497 265.661 885.658 260.849C897.818 256.037 905.48 246.52 902.727 239.596C899.99 232.678 887.897 230.966 875.737 235.778Z" fill="white"/>
<path opacity="0.75" d="M498.832 79.8856C471.953 99.6368 466.175 137.438 485.926 164.317C505.678 191.195 543.479 196.973 570.357 177.222C597.236 157.47 603.014 119.67 583.263 92.7909C563.511 65.9122 525.71 60.1343 498.832 79.8856Z" fill="white"/>
<path d="M556.814 184.709C560.493 183.253 543.444 133.28 540.628 126.165C537.813 119.049 516.424 70.7939 512.371 72.398C481.352 84.6726 466.162 119.756 478.437 150.775C490.712 181.794 525.795 196.983 556.814 184.709Z" fill="#14A9E3"/>
<path opacity="0.75" d="M539.655 154.223C527.494 159.035 519.832 168.552 522.585 175.476C525.337 182.4 537.415 184.105 549.576 179.293C561.736 174.481 569.398 164.964 566.645 158.04C563.908 151.123 551.815 149.41 539.655 154.223Z" fill="white"/>
</svg>
