<svg width="334" height="508" viewBox="0 0 334 508" fill="none" xmlns="http://www.w3.org/2000/svg">
<mask id="path-1-outside-1_81_7149" maskUnits="userSpaceOnUse" x="0" y="0" width="334" height="508" fill="black">
<rect fill="white" width="334" height="508"/>
<path d="M118.229 20.6162H118.404V462.817H277.654V20.6162H323.786V497.353H72.2725V62.6846H10V10H118.229V20.6162Z"/>
</mask>
<path d="M118.229 20.6162H118.404V462.817H277.654V20.6162H323.786V497.353H72.2725V62.6846H10V10H118.229V20.6162Z" fill="#FF0000"/>
<path d="M118.229 20.6162H108.229V30.6162H118.229V20.6162ZM118.404 20.6162H128.404V10.6162H118.404V20.6162ZM118.404 462.817H108.404V472.817H118.404V462.817ZM277.654 462.817V472.817H287.654V462.817H277.654ZM277.654 20.6162V10.6162H267.654V20.6162H277.654ZM323.786 20.6162H333.786V10.6162H323.786V20.6162ZM323.786 497.353V507.353H333.786V497.353H323.786ZM72.2725 497.353H62.2725V507.353H72.2725V497.353ZM72.2725 62.6846H82.2725V52.6846H72.2725V62.6846ZM10 62.6846H0V72.6846H10V62.6846ZM10 10V0H0V10H10ZM118.229 10H128.229V0H118.229V10ZM118.229 20.6162V30.6162H118.404V20.6162V10.6162H118.229V20.6162ZM118.404 20.6162H108.404V462.817H118.404H128.404V20.6162H118.404ZM118.404 462.817V472.817H277.654V462.817V452.817H118.404V462.817ZM277.654 462.817H287.654V20.6162H277.654H267.654V462.817H277.654ZM277.654 20.6162V30.6162H323.786V20.6162V10.6162H277.654V20.6162ZM323.786 20.6162H313.786V497.353H323.786H333.786V20.6162H323.786ZM323.786 497.353V487.353H72.2725V497.353V507.353H323.786V497.353ZM72.2725 497.353H82.2725V62.6846H72.2725H62.2725V497.353H72.2725ZM72.2725 62.6846V52.6846H10V62.6846V72.6846H72.2725V62.6846ZM10 62.6846H20V10H10H0V62.6846H10ZM10 10V20H118.229V10V0H10V10ZM118.229 10H108.229V20.6162H118.229H128.229V10H118.229Z" fill="black" mask="url(#path-1-outside-1_81_7149)"/>
</svg>
