<svg width="1920" height="1080" viewBox="0 0 1920 1080" fill="none" xmlns="http://www.w3.org/2000/svg">
<g clip-path="url(#clip0_81_5667)">
<rect width="1920" height="1080" fill="white" fill-opacity="0.08"/>
<path opacity="0.75" d="M539.684 738.279C543.199 705.109 519.159 675.37 485.989 671.856C452.82 668.341 423.081 692.381 419.567 725.551C416.052 758.72 440.092 788.459 473.261 791.973C506.431 795.488 536.169 771.448 539.684 738.279Z" fill="white"/>
<path d="M423.159 710.498C421.756 714.198 470.169 735.27 477.325 737.983C484.48 740.697 534.549 757.404 536.095 753.328C547.924 722.137 532.233 687.274 501.041 675.445C469.85 663.616 434.988 679.307 423.159 710.498Z" fill="#3DB987"/>
<path opacity="0.75" d="M457.249 718.359C461.886 706.131 460.016 694.057 453.045 691.426C446.074 688.795 436.676 696.57 432.039 708.798C427.401 721.027 429.271 733.101 436.243 735.732C443.199 738.37 452.611 730.588 457.249 718.359Z" fill="white"/>
<path opacity="0.75" d="M625.758 695.076C617.282 662.816 584.259 643.534 551.999 652.009C519.738 660.485 500.457 693.508 508.932 725.768C517.408 758.029 550.431 777.31 582.691 768.835C614.952 760.36 634.233 727.337 625.758 695.076Z" fill="white"/>
<path d="M506.954 710.421C506.954 714.377 559.694 716.913 567.346 716.913C574.999 716.913 627.738 714.78 627.738 710.421C627.738 677.062 600.705 650.029 567.346 650.029C533.987 650.029 506.954 677.062 506.954 710.421Z" fill="#ED9D0F"/>
<path opacity="0.75" d="M541.616 705.683C541.616 692.605 535.586 681.978 528.135 681.99C520.684 682.002 514.654 692.605 514.654 705.683C514.654 718.761 520.684 729.387 528.135 729.375C535.574 729.375 541.616 718.761 541.616 705.683Z" fill="white"/>
<path opacity="0.75" d="M609.323 768.335C590.437 740.842 552.839 733.864 525.345 752.75C497.852 771.636 490.874 809.234 509.76 836.727C528.646 864.221 566.244 871.199 593.737 852.313C621.231 833.427 628.209 795.829 609.323 768.335Z" fill="white"/>
<path d="M502.708 822.953C504.046 826.677 554.535 811.227 561.737 808.639C568.939 806.051 617.85 786.209 616.376 782.106C605.094 750.713 570.512 734.414 539.118 745.696C507.725 756.977 491.426 791.559 502.708 822.953Z" fill="#EB559C"/>
<path opacity="0.75" d="M533.725 806.772C529.302 794.464 520.034 786.503 513.026 789.035C506.017 791.566 503.928 803.582 508.351 815.89C512.774 828.198 522.042 836.159 529.05 833.628C536.051 831.112 538.147 819.08 533.725 806.772Z" fill="white"/>
<path opacity="0.75" d="M631.054 744.618C649.94 772.112 687.538 779.09 715.032 760.204C742.525 741.318 749.503 703.72 730.617 676.226C711.731 648.733 674.133 641.755 646.64 660.641C619.146 679.527 612.168 717.125 631.054 744.618Z" fill="white"/>
<path d="M737.669 690.001C736.331 686.277 685.842 701.727 678.64 704.315C671.438 706.903 622.527 726.745 624.001 730.847C635.283 762.241 669.865 778.539 701.259 767.258C732.652 755.977 748.951 721.394 737.669 690.001Z" fill="#EB559C"/>
<path opacity="0.75" d="M706.652 706.181C711.075 718.489 720.343 726.45 727.351 723.919C734.36 721.388 736.449 709.371 732.026 697.063C727.603 684.756 718.335 676.795 711.327 679.326C704.326 681.842 702.229 693.874 706.652 706.181Z" fill="white"/>
<path opacity="0.75" d="M919.686 754.364C938.572 781.857 976.17 788.835 1003.66 769.949C1031.16 751.063 1038.13 713.465 1019.25 685.972C1000.36 658.478 962.765 651.501 935.271 670.386C907.778 689.272 900.8 726.87 919.686 754.364Z" fill="white"/>
<path d="M1026.3 699.746C1024.96 696.023 974.473 711.472 967.271 714.06C960.069 716.648 911.158 736.49 912.633 740.593C923.914 771.987 958.497 788.285 989.89 777.004C1021.28 765.722 1037.58 731.14 1026.3 699.746Z" fill="#EB559C"/>
<path opacity="0.75" d="M995.284 715.927C999.706 728.235 1008.97 736.196 1015.98 733.665C1022.99 731.134 1025.08 719.117 1020.66 706.809C1016.23 694.501 1006.97 686.541 999.958 689.072C992.957 691.587 990.861 703.619 995.284 715.927Z" fill="white"/>
<path opacity="0.75" d="M610.094 807.267C643.119 811.95 673.688 788.975 678.371 755.95C683.055 722.925 660.079 692.357 627.054 687.673C594.03 682.99 563.461 705.965 558.778 738.99C554.094 772.015 577.07 802.583 610.094 807.267Z" fill="white"/>
<path d="M641.97 691.795C638.322 690.262 615.555 737.902 612.59 744.957C609.626 752.012 591.162 801.46 595.181 803.149C625.935 816.071 661.33 801.621 674.252 770.866C687.175 740.112 672.724 704.718 641.97 691.795Z" fill="#D32F2F"/>
<path opacity="0.75" d="M632.911 725.586C644.968 730.652 657.1 729.21 659.976 722.335C662.851 715.461 655.413 705.795 643.356 700.729C631.298 695.663 619.166 697.105 616.291 703.98C613.409 710.838 620.854 720.52 632.911 725.586Z" fill="white"/>
<path opacity="0.75" d="M783.034 663.687C750.009 659.003 719.44 681.979 714.757 715.004C710.074 748.028 733.049 778.597 766.074 783.28C799.099 787.964 829.667 764.988 834.351 731.963C839.034 698.939 816.059 668.37 783.034 663.687Z" fill="white"/>
<path d="M751.158 779.159C754.806 780.692 777.573 733.052 780.538 725.997C783.502 718.942 801.966 669.494 797.947 667.805C767.193 654.883 731.798 669.333 718.876 700.088C705.953 730.842 720.404 766.237 751.158 779.159Z" fill="#D32F2F"/>
<path opacity="0.75" d="M760.217 745.368C748.16 740.302 736.028 741.745 733.152 748.619C730.276 755.493 737.715 765.159 749.772 770.225C761.83 775.291 773.962 773.849 776.837 766.975C779.719 760.116 772.274 750.434 760.217 745.368Z" fill="white"/>
<path opacity="0.75" d="M445.646 677.262C412.621 672.578 382.053 695.553 377.369 728.578C372.686 761.603 395.661 792.172 428.686 796.855C461.711 801.538 492.28 778.563 496.963 745.538C501.646 712.513 478.671 681.945 445.646 677.262Z" fill="white"/>
<path d="M413.77 792.734C417.418 794.267 440.185 746.627 443.15 739.572C446.114 732.517 464.579 683.069 460.56 681.38C429.805 668.458 394.411 682.908 381.488 713.662C368.566 744.417 383.016 779.811 413.77 792.734Z" fill="#D32F2F"/>
<path opacity="0.75" d="M422.829 758.943C410.772 753.877 398.64 755.319 395.764 762.193C392.889 769.067 400.328 778.734 412.385 783.8C424.442 788.866 436.574 787.423 439.45 780.549C442.331 773.691 434.886 764.009 422.829 758.943Z" fill="white"/>
<path opacity="0.75" d="M1148.03 652.098C1115 647.415 1084.44 670.39 1079.75 703.415C1075.07 736.439 1098.04 767.008 1131.07 771.691C1164.09 776.375 1194.66 753.399 1199.35 720.375C1204.03 687.35 1181.05 656.781 1148.03 652.098Z" fill="white"/>
<path d="M1116.15 767.57C1119.8 769.103 1142.57 721.463 1145.53 714.408C1148.5 707.353 1166.96 657.905 1162.94 656.217C1132.19 643.294 1096.79 657.744 1083.87 688.499C1070.95 719.253 1085.4 754.648 1116.15 767.57Z" fill="#D32F2F"/>
<path opacity="0.75" d="M1125.21 733.779C1113.15 728.713 1101.02 730.156 1098.15 737.03C1095.27 743.904 1102.71 753.57 1114.77 758.636C1126.82 763.702 1138.96 762.26 1141.83 755.386C1144.71 748.527 1137.27 738.846 1125.21 733.779Z" fill="white"/>
<path opacity="0.75" d="M509.961 793.858C501.486 761.597 468.463 742.316 436.203 750.791C403.942 759.267 384.66 792.29 393.136 824.55C401.611 856.811 434.634 876.092 466.895 867.617C499.155 859.141 518.437 826.118 509.961 793.858Z" fill="white"/>
<path d="M391.158 809.202C391.158 813.159 443.897 815.694 451.55 815.694C459.203 815.694 511.942 813.562 511.942 809.203C511.942 775.843 484.909 748.81 451.55 748.81C418.191 748.81 391.158 775.843 391.158 809.202Z" fill="#ED9D0F"/>
<path opacity="0.75" d="M425.82 804.465C425.819 791.386 419.79 780.76 412.339 780.772C404.887 780.784 398.857 791.386 398.857 804.465C398.857 817.543 404.887 828.169 412.339 828.157C419.778 828.157 425.82 817.543 425.82 804.465Z" fill="white"/>
<path opacity="0.75" d="M676.333 808.072C684.808 840.332 717.831 859.614 750.092 851.139C782.352 842.663 801.634 809.64 793.159 777.38C784.683 745.119 751.66 725.837 719.4 734.313C687.139 742.788 667.858 775.811 676.333 808.072Z" fill="white"/>
<path d="M795.137 792.727C795.137 788.771 742.398 786.235 734.745 786.235C727.092 786.235 674.353 788.368 674.353 792.727C674.353 826.086 701.386 853.119 734.745 853.119C768.104 853.119 795.137 826.086 795.137 792.727Z" fill="#ED9D0F"/>
<path opacity="0.75" d="M760.475 797.465C760.475 810.543 766.505 821.17 773.956 821.158C781.408 821.146 787.438 810.543 787.438 797.465C787.438 784.387 781.408 773.761 773.956 773.773C766.517 773.773 760.475 784.387 760.475 797.465Z" fill="white"/>
<path opacity="0.75" d="M691.087 856.583C717.966 836.831 723.744 799.03 703.993 772.152C684.241 745.273 646.44 739.495 619.562 759.247C592.683 778.998 586.905 816.799 606.656 843.677C626.408 870.556 664.209 876.334 691.087 856.583Z" fill="white"/>
<path d="M633.105 751.76C629.426 753.216 646.474 803.188 649.29 810.304C652.106 817.419 673.494 865.674 677.548 864.07C708.567 851.796 723.756 816.712 711.482 785.693C699.207 754.675 664.123 739.485 633.105 751.76Z" fill="#14A9E3"/>
<path opacity="0.75" d="M650.264 782.246C662.425 777.434 670.087 767.917 667.334 760.993C664.581 754.069 652.504 752.363 640.343 757.176C628.183 761.988 620.521 771.504 623.274 778.429C626.011 785.346 638.104 787.058 650.264 782.246Z" fill="white"/>
<path opacity="0.75" d="M792.918 753.425C766.04 773.176 760.262 810.977 780.013 837.856C799.764 864.735 837.565 870.513 864.444 850.761C891.322 831.01 897.1 793.209 877.349 766.33C857.598 739.452 819.797 733.674 792.918 753.425Z" fill="white"/>
<path d="M850.901 858.248C854.58 856.792 837.532 806.82 834.716 799.704C831.9 792.588 810.512 744.333 806.458 745.938C775.439 758.212 760.25 793.296 772.524 824.314C784.799 855.333 819.883 870.523 850.901 858.248Z" fill="#14A9E3"/>
<path opacity="0.75" d="M833.741 827.761C821.58 832.573 813.918 842.09 816.671 849.014C819.424 855.938 831.501 857.644 843.662 852.832C855.823 848.02 863.485 838.503 860.732 831.579C857.994 824.661 845.902 822.949 833.741 827.761Z" fill="white"/>
<path opacity="0.75" d="M911.141 739.892C914.656 706.722 890.616 676.984 857.446 673.469C824.277 669.954 794.538 693.994 791.024 727.164C787.509 760.334 811.549 790.072 844.719 793.587C877.888 797.101 907.627 773.061 911.141 739.892Z" fill="white"/>
<path d="M794.616 712.112C793.213 715.811 841.626 736.883 848.782 739.596C855.937 742.31 906.006 759.017 907.552 754.941C919.381 723.75 903.69 688.887 872.498 677.059C841.307 665.23 806.445 680.92 794.616 712.112Z" fill="#3DB987"/>
<path opacity="0.75" d="M828.706 719.972C833.343 707.744 831.473 695.67 824.502 693.039C817.531 690.408 808.133 698.183 803.496 710.412C798.858 722.64 800.728 734.714 807.7 737.345C814.656 739.983 824.068 732.201 828.706 719.972Z" fill="white"/>
<path opacity="0.75" d="M481.747 776.747C478.233 809.917 502.273 839.655 535.442 843.17C568.612 846.685 598.35 822.645 601.865 789.475C605.38 756.306 581.34 726.567 548.17 723.053C515.001 719.538 485.262 743.578 481.747 776.747Z" fill="white"/>
<path d="M598.273 804.527C599.676 800.827 551.262 779.756 544.107 777.042C536.951 774.329 486.883 757.621 485.337 761.697C473.508 792.889 489.199 827.751 520.39 839.58C551.582 851.409 586.444 835.718 598.273 804.527Z" fill="#3DB987"/>
<path opacity="0.75" d="M564.183 796.666C559.546 808.895 561.416 820.969 568.387 823.6C575.358 826.231 584.756 818.455 589.393 806.227C594.031 793.998 592.161 781.925 585.189 779.294C578.233 776.656 568.821 784.438 564.183 796.666Z" fill="white"/>
<path opacity="0.75" d="M980.78 769.949C961.894 742.455 924.296 735.477 896.802 754.363C869.309 773.249 862.331 810.847 881.217 838.341C900.103 865.834 937.701 872.812 965.194 853.926C992.688 835.04 999.666 797.442 980.78 769.949Z" fill="white"/>
<path d="M874.165 824.566C875.503 828.29 925.992 812.84 933.194 810.252C940.396 807.664 989.307 787.822 987.833 783.719C976.551 752.326 941.969 736.028 910.575 747.309C879.182 758.59 862.883 793.173 874.165 824.566Z" fill="#EB559C"/>
<path opacity="0.75" d="M905.182 808.385C900.759 796.078 891.491 788.117 884.483 790.648C877.474 793.179 875.385 805.196 879.808 817.503C884.231 829.811 893.499 837.772 900.507 835.241C907.508 832.725 909.604 820.693 905.182 808.385Z" fill="white"/>
<path opacity="0.75" d="M1065.93 773.942C1084.81 801.435 1122.41 808.413 1149.9 789.527C1177.4 770.642 1184.37 733.043 1165.49 705.55C1146.6 678.056 1109.01 671.079 1081.51 689.965C1054.02 708.85 1047.04 746.448 1065.93 773.942Z" fill="white"/>
<path d="M1172.54 719.324C1171.2 715.601 1120.71 731.051 1113.51 733.639C1106.31 736.226 1057.4 756.069 1058.87 760.171C1070.15 791.565 1104.74 807.863 1136.13 796.582C1167.52 785.3 1183.82 750.718 1172.54 719.324Z" fill="#EB559C"/>
<path opacity="0.75" d="M1141.52 735.505C1145.95 747.813 1155.21 755.774 1162.22 753.243C1169.23 750.712 1171.32 738.695 1166.9 726.387C1162.47 714.079 1153.21 706.119 1146.2 708.65C1139.2 711.166 1137.1 723.197 1141.52 735.505Z" fill="white"/>
<path opacity="0.75" d="M997.999 790.743C1031.02 795.426 1061.59 772.451 1066.28 739.426C1070.96 706.401 1047.98 675.833 1014.96 671.149C981.934 666.466 951.365 689.441 946.682 722.466C941.999 755.491 964.974 786.06 997.999 790.743Z" fill="white"/>
<path d="M1029.87 675.271C1026.23 673.738 1003.46 721.378 1000.49 728.433C997.53 735.488 979.066 784.936 983.085 786.625C1013.84 799.547 1049.23 785.097 1062.16 754.343C1075.08 723.588 1060.63 688.194 1029.87 675.271Z" fill="#D32F2F"/>
<path opacity="0.75" d="M1020.82 709.062C1032.87 714.128 1045 712.686 1047.88 705.812C1050.76 698.937 1043.32 689.271 1031.26 684.205C1019.2 679.139 1007.07 680.582 1004.19 687.456C1001.31 694.314 1008.76 703.996 1020.82 709.062Z" fill="white"/>
<path opacity="0.75" d="M881.419 795.471C872.943 763.211 839.92 743.929 807.66 752.404C775.399 760.88 756.117 793.903 764.593 826.163C773.068 858.424 806.091 877.705 838.352 869.23C870.612 860.755 889.894 827.732 881.419 795.471Z" fill="white"/>
<path d="M762.615 810.816C762.615 814.772 815.354 817.308 823.007 817.308C830.66 817.308 883.399 815.175 883.399 810.816C883.399 777.457 856.366 750.424 823.007 750.424C789.648 750.424 762.615 777.457 762.615 810.816Z" fill="#ED9D0F"/>
<path opacity="0.75" d="M797.277 806.078C797.277 793 791.247 782.373 783.796 782.385C776.344 782.397 770.314 793 770.314 806.078C770.314 819.156 776.344 829.782 783.796 829.77C791.235 829.77 797.277 819.156 797.277 806.078Z" fill="white"/>
<path opacity="0.75" d="M1047.79 809.685C1056.27 841.946 1089.29 861.227 1121.55 852.752C1153.81 844.276 1173.09 811.253 1164.62 778.993C1156.14 746.732 1123.12 727.451 1090.86 735.926C1058.6 744.402 1039.31 777.424 1047.79 809.685Z" fill="white"/>
<path d="M1166.59 794.34C1166.59 790.384 1113.85 787.849 1106.2 787.849C1098.55 787.849 1045.81 789.981 1045.81 794.34C1045.81 827.699 1072.84 854.733 1106.2 854.733C1139.56 854.733 1166.59 827.7 1166.59 794.34Z" fill="#ED9D0F"/>
<path opacity="0.75" d="M1131.93 799.078C1131.93 812.157 1137.96 822.783 1145.41 822.771C1152.86 822.759 1158.89 812.157 1158.89 799.078C1158.89 786 1152.86 775.374 1145.41 775.386C1137.97 775.386 1131.93 786 1131.93 799.078Z" fill="white"/>
<path opacity="0.75" d="M1180.62 688.92C1155.62 711.003 1153.26 749.17 1175.34 774.168C1197.42 799.166 1235.59 801.529 1260.59 779.446C1285.59 757.362 1287.95 719.196 1265.87 694.197C1243.78 669.199 1205.62 666.836 1180.62 688.92Z" fill="white"/>
<path d="M1247.77 788.117C1251.31 786.337 1229.84 738.096 1226.4 731.262C1222.96 724.427 1197.33 678.286 1193.43 680.248C1163.64 695.256 1151.66 731.561 1166.67 761.353C1181.68 791.145 1217.98 803.126 1247.77 788.117Z" fill="#ED9D0F"/>
<path opacity="0.75" d="M1227.95 759.293C1216.27 765.177 1209.49 775.343 1212.85 781.992C1216.22 788.642 1228.4 789.257 1240.08 783.373C1251.76 777.489 1258.53 767.323 1255.17 760.674C1251.82 754.03 1239.63 753.409 1227.95 759.293Z" fill="white"/>
<path opacity="0.75" d="M1062.54 858.196C1089.42 838.445 1095.2 800.644 1075.45 773.765C1055.7 746.886 1017.9 741.109 991.019 760.86C964.14 780.611 958.362 818.412 978.113 845.291C997.865 872.169 1035.67 877.947 1062.54 858.196Z" fill="white"/>
<path d="M1004.56 753.373C1000.88 754.829 1017.93 804.801 1020.75 811.917C1023.56 819.033 1044.95 867.288 1049 865.684C1080.02 853.409 1095.21 818.325 1082.94 787.307C1070.66 756.288 1035.58 741.098 1004.56 753.373Z" fill="#14A9E3"/>
<path opacity="0.75" d="M1021.72 783.859C1033.88 779.047 1041.54 769.531 1038.79 762.606C1036.04 755.682 1023.96 753.977 1011.8 758.789C999.64 763.601 991.978 773.118 994.731 780.042C997.468 786.959 1009.56 788.672 1021.72 783.859Z" fill="white"/>
<path opacity="0.75" d="M1164.38 755.038C1137.5 774.79 1131.72 812.591 1151.47 839.469C1171.22 866.348 1209.02 872.126 1235.9 852.375C1262.78 832.623 1268.56 794.822 1248.81 767.944C1229.05 741.065 1191.25 735.287 1164.38 755.038Z" fill="white"/>
<path d="M1222.36 859.861C1226.04 858.406 1208.99 808.433 1206.17 801.317C1203.36 794.202 1181.97 745.947 1177.91 747.551C1146.9 759.825 1131.71 794.909 1143.98 825.928C1156.26 856.946 1191.34 872.136 1222.36 859.861Z" fill="#14A9E3"/>
<path opacity="0.75" d="M1205.2 829.375C1193.04 834.187 1185.38 843.703 1188.13 850.628C1190.88 857.552 1202.96 859.257 1215.12 854.445C1227.28 849.633 1234.94 840.116 1232.19 833.192C1229.45 826.274 1217.36 824.562 1205.2 829.375Z" fill="white"/>
<path opacity="0.75" d="M828.293 673.483C801.415 693.234 795.637 731.035 815.388 757.914C835.139 784.792 872.94 790.57 899.819 770.819C926.697 751.068 932.475 713.267 912.724 686.388C892.973 659.509 855.172 653.731 828.293 673.483Z" fill="white"/>
<path d="M886.276 778.306C889.955 776.85 872.907 726.878 870.091 719.762C867.275 712.646 845.887 664.391 841.833 665.995C810.814 678.27 795.625 713.353 807.899 744.372C820.174 775.391 855.258 790.58 886.276 778.306Z" fill="#14A9E3"/>
<path opacity="0.75" d="M869.116 747.819C856.955 752.631 849.293 762.148 852.046 769.072C854.799 775.996 866.876 777.702 879.037 772.889C891.198 768.077 898.86 758.56 896.107 751.636C893.369 744.719 881.277 743.007 869.116 747.819Z" fill="white"/>
<path d="M487.441 242.007H1431.19C1476.48 242.007 1513.19 278.72 1513.19 324.007V1095.28H405.441V324.007C405.441 278.72 442.154 242.007 487.441 242.007Z" fill="white" fill-opacity="0.25" stroke="black" stroke-width="10"/>
<mask id="path-74-outside-1_81_5667" maskUnits="userSpaceOnUse" x="1189.81" y="582.488" width="334" height="508" fill="black">
<rect fill="white" x="1189.81" y="582.488" width="334" height="508"/>
<path d="M1308.04 603.104H1308.22V1045.31H1467.47V603.104H1513.6V1079.84H1262.09V645.173H1199.81V592.488H1308.04V603.104Z"/>
</mask>
<path d="M1308.04 603.104H1308.22V1045.31H1467.47V603.104H1513.6V1079.84H1262.09V645.173H1199.81V592.488H1308.04V603.104Z" fill="#FF0000"/>
<path d="M1308.04 603.104H1298.04V613.104H1308.04V603.104ZM1308.22 603.104H1318.22V593.104H1308.22V603.104ZM1308.22 1045.31H1298.22V1055.31H1308.22V1045.31ZM1467.47 1045.31V1055.31H1477.47V1045.31H1467.47ZM1467.47 603.104V593.104H1457.47V603.104H1467.47ZM1513.6 603.104H1523.6V593.104H1513.6V603.104ZM1513.6 1079.84V1089.84H1523.6V1079.84H1513.6ZM1262.09 1079.84H1252.09V1089.84H1262.09V1079.84ZM1262.09 645.173H1272.09V635.173H1262.09V645.173ZM1199.81 645.173H1189.81V655.173H1199.81V645.173ZM1199.81 592.488V582.488H1189.81V592.488H1199.81ZM1308.04 592.488H1318.04V582.488H1308.04V592.488ZM1308.04 603.104V613.104H1308.22V603.104V593.104H1308.04V603.104ZM1308.22 603.104H1298.22V1045.31H1308.22H1318.22V603.104H1308.22ZM1308.22 1045.31V1055.31H1467.47V1045.31V1035.31H1308.22V1045.31ZM1467.47 1045.31H1477.47V603.104H1467.47H1457.47V1045.31H1467.47ZM1467.47 603.104V613.104H1513.6V603.104V593.104H1467.47V603.104ZM1513.6 603.104H1503.6V1079.84H1513.6H1523.6V603.104H1513.6ZM1513.6 1079.84V1069.84H1262.09V1079.84V1089.84H1513.6V1079.84ZM1262.09 1079.84H1272.09V645.173H1262.09H1252.09V1079.84H1262.09ZM1262.09 645.173V635.173H1199.81V645.173V655.173H1262.09V645.173ZM1199.81 645.173H1209.81V592.488H1199.81H1189.81V645.173H1199.81ZM1199.81 592.488V602.488H1308.04V592.488V582.488H1199.81V592.488ZM1308.04 592.488H1298.04V603.104H1308.04H1318.04V592.488H1308.04Z" fill="black" mask="url(#path-74-outside-1_81_5667)"/>
</g>
<defs>
<clipPath id="clip0_81_5667">
<rect width="1920" height="1080" fill="white"/>
</clipPath>
</defs>
</svg>
